M48
INCH,TZ
T1C0.0157
T2C0.0400
T3C0.0472
T4C0.0551
T5C0.0906
T6C0.1693
%
G90
G05
T1
X12500Y-101600
X15564Y-100978
X15800Y-109500
X15800Y-111300
X16000Y-100200
X16000Y-103700
X16436Y-101600
X22500Y-101600
X26000Y-100300
X26000Y-103600
X32500Y-101600
X36000Y-100300
X36000Y-103700
X42500Y-101600
X46000Y-100300
X46000Y-103700
X52500Y-101600
X56000Y-100300
X56000Y-103700
X62500Y-101600
X66000Y-100300
X66000Y-103700
X72500Y-101600
X76000Y-100300
X76000Y-103700
X82500Y-101600
X92500Y-101600
X96000Y-100300
X96000Y-103700
T2
X47500Y-63500
X47500Y-70500
X48500Y-63500
X48500Y-70500
X49500Y-63500
X49500Y-70500
X50500Y-63500
X50500Y-70500
X51500Y-63500
X51500Y-70500
X52500Y-63500
X52500Y-70500
X53500Y-63500
X53500Y-70500
X54500Y-63500
X54500Y-70500
X17500Y-103500
X17500Y-110500
X18500Y-103500
X18500Y-110500
X19500Y-103500
X19500Y-110500
X20500Y-103500
X20500Y-110500
X21500Y-103500
X21500Y-110500
X22500Y-103500
X22500Y-110500
X23500Y-103500
X23500Y-110500
X24500Y-103500
X24500Y-110500
X17500Y-33500
X17500Y-40500
X18500Y-33500
X18500Y-40500
X19500Y-33500
X19500Y-40500
X20500Y-33500
X20500Y-40500
X21500Y-33500
X21500Y-40500
X22500Y-33500
X22500Y-40500
X23500Y-33500
X23500Y-40500
X24500Y-33500
X24500Y-40500
X77500Y-103500
X77500Y-110500
X78500Y-103500
X78500Y-110500
X79500Y-103500
X79500Y-110500
X80500Y-103500
X80500Y-110500
X81500Y-103500
X81500Y-110500
X82500Y-103500
X82500Y-110500
X83500Y-103500
X83500Y-110500
X84500Y-103500
X84500Y-110500
X77500Y-63500
X77500Y-70500
X78500Y-63500
X78500Y-70500
X79500Y-63500
X79500Y-70500
X80500Y-63500
X80500Y-70500
X81500Y-63500
X81500Y-70500
X82500Y-63500
X82500Y-70500
X83500Y-63500
X83500Y-70500
X84500Y-63500
X84500Y-70500
X27500Y-103500
X27500Y-110500
X28500Y-103500
X28500Y-110500
X29500Y-103500
X29500Y-110500
X30500Y-103500
X30500Y-110500
X31500Y-103500
X31500Y-110500
X32500Y-103500
X32500Y-110500
X33500Y-103500
X33500Y-110500
X34500Y-103500
X34500Y-110500
X37500Y-83500
X37500Y-90500
X38500Y-83500
X38500Y-90500
X39500Y-83500
X39500Y-90500
X40500Y-83500
X40500Y-90500
X41500Y-83500
X41500Y-90500
X42500Y-83500
X42500Y-90500
X43500Y-83500
X43500Y-90500
X44500Y-83500
X44500Y-90500
X27500Y-23500
X27500Y-30500
X28500Y-23500
X28500Y-30500
X29500Y-23500
X29500Y-30500
X30500Y-23500
X30500Y-30500
X31500Y-23500
X31500Y-30500
X32500Y-23500
X32500Y-30500
X33500Y-23500
X33500Y-30500
X34500Y-23500
X34500Y-30500
X57500Y-53500
X57500Y-60500
X58500Y-53500
X58500Y-60500
X59500Y-53500
X59500Y-60500
X60500Y-53500
X60500Y-60500
X61500Y-53500
X61500Y-60500
X62500Y-53500
X62500Y-60500
X63500Y-53500
X63500Y-60500
X64500Y-53500
X64500Y-60500
X97500Y-83500
X97500Y-90500
X98500Y-83500
X98500Y-90500
X99500Y-83500
X99500Y-90500
X100500Y-83500
X100500Y-90500
X101500Y-83500
X101500Y-90500
X102500Y-83500
X102500Y-90500
X103500Y-83500
X103500Y-90500
X104500Y-83500
X104500Y-90500
X17500Y-23553
X17500Y-30553
X18500Y-23553
X18500Y-30553
X19500Y-23553
X19500Y-30553
X20500Y-23553
X20500Y-30553
X21500Y-23553
X21500Y-30553
X22500Y-23553
X22500Y-30553
X23500Y-23553
X23500Y-30553
X24500Y-23553
X24500Y-30553
X97500Y-43500
X97500Y-50500
X98500Y-43500
X98500Y-50500
X99500Y-43500
X99500Y-50500
X100500Y-43500
X100500Y-50500
X101500Y-43500
X101500Y-50500
X102500Y-43500
X102500Y-50500
X103500Y-43500
X103500Y-50500
X104500Y-43500
X104500Y-50500
X7500Y-83500
X7500Y-90500
X8500Y-83500
X8500Y-90500
X9500Y-83500
X9500Y-90500
X10500Y-83500
X10500Y-90500
X11500Y-83500
X11500Y-90500
X12500Y-83500
X12500Y-90500
X13500Y-83500
X13500Y-90500
X14500Y-83500
X14500Y-90500
X77500Y-13500
X77500Y-20500
X78500Y-13500
X78500Y-20500
X79500Y-13500
X79500Y-20500
X80500Y-13500
X80500Y-20500
X81500Y-13500
X81500Y-20500
X82500Y-13500
X82500Y-20500
X83500Y-13500
X83500Y-20500
X84500Y-13500
X84500Y-20500
X37500Y-103500
X37500Y-110500
X38500Y-103500
X38500Y-110500
X39500Y-103500
X39500Y-110500
X40500Y-103500
X40500Y-110500
X41500Y-103500
X41500Y-110500
X42500Y-103500
X42500Y-110500
X43500Y-103500
X43500Y-110500
X44500Y-103500
X44500Y-110500
X17500Y-53500
X17500Y-60500
X18500Y-53500
X18500Y-60500
X19500Y-53500
X19500Y-60500
X20500Y-53500
X20500Y-60500
X21500Y-53500
X21500Y-60500
X22500Y-53500
X22500Y-60500
X23500Y-53500
X23500Y-60500
X24500Y-53500
X24500Y-60500
X17500Y-73500
X17500Y-80500
X18500Y-73500
X18500Y-80500
X19500Y-73500
X19500Y-80500
X20500Y-73500
X20500Y-80500
X21500Y-73500
X21500Y-80500
X22500Y-73500
X22500Y-80500
X23500Y-73500
X23500Y-80500
X24500Y-73500
X24500Y-80500
X87500Y-23500
X87500Y-30500
X88500Y-23500
X88500Y-30500
X89500Y-23500
X89500Y-30500
X90500Y-23500
X90500Y-30500
X91500Y-23500
X91500Y-30500
X92500Y-23500
X92500Y-30500
X93500Y-23500
X93500Y-30500
X94500Y-23500
X94500Y-30500
X7500Y-93500
X7500Y-100500
X8500Y-93500
X8500Y-100500
X9500Y-93500
X9500Y-100500
X10500Y-93500
X10500Y-100500
X11500Y-93500
X11500Y-100500
X12500Y-93500
X12500Y-100500
X13500Y-93500
X13500Y-100500
X14500Y-93500
X14500Y-100500
X67500Y-43500
X67500Y-50500
X68500Y-43500
X68500Y-50500
X69500Y-43500
X69500Y-50500
X70500Y-43500
X70500Y-50500
X71500Y-43500
X71500Y-50500
X72500Y-43500
X72500Y-50500
X73500Y-43500
X73500Y-50500
X74500Y-43500
X74500Y-50500
X37500Y-63500
X37500Y-70500
X38500Y-63500
X38500Y-70500
X39500Y-63500
X39500Y-70500
X40500Y-63500
X40500Y-70500
X41500Y-63500
X41500Y-70500
X42500Y-63500
X42500Y-70500
X43500Y-63500
X43500Y-70500
X44500Y-63500
X44500Y-70500
X67500Y-23500
X67500Y-30500
X68500Y-23500
X68500Y-30500
X69500Y-23500
X69500Y-30500
X70500Y-23500
X70500Y-30500
X71500Y-23500
X71500Y-30500
X72500Y-23500
X72500Y-30500
X73500Y-23500
X73500Y-30500
X74500Y-23500
X74500Y-30500
X37500Y-93500
X37500Y-100500
X38500Y-93500
X38500Y-100500
X39500Y-93500
X39500Y-100500
X40500Y-93500
X40500Y-100500
X41500Y-93500
X41500Y-100500
X42500Y-93500
X42500Y-100500
X43500Y-93500
X43500Y-100500
X44500Y-93500
X44500Y-100500
X7500Y-73500
X7500Y-80500
X8500Y-73500
X8500Y-80500
X9500Y-73500
X9500Y-80500
X10500Y-73500
X10500Y-80500
X11500Y-73500
X11500Y-80500
X12500Y-73500
X12500Y-80500
X13500Y-73500
X13500Y-80500
X14500Y-73500
X14500Y-80500
X47500Y-43500
X47500Y-50500
X48500Y-43500
X48500Y-50500
X49500Y-43500
X49500Y-50500
X50500Y-43500
X50500Y-50500
X51500Y-43500
X51500Y-50500
X52500Y-43500
X52500Y-50500
X53500Y-43500
X53500Y-50500
X54500Y-43500
X54500Y-50500
X27500Y-13500
X27500Y-20500
X28500Y-13500
X28500Y-20500
X29500Y-13500
X29500Y-20500
X30500Y-13500
X30500Y-20500
X31500Y-13500
X31500Y-20500
X32500Y-13500
X32500Y-20500
X33500Y-13500
X33500Y-20500
X34500Y-13500
X34500Y-20500
X17500Y-83500
X17500Y-90500
X18500Y-83500
X18500Y-90500
X19500Y-83500
X19500Y-90500
X20500Y-83500
X20500Y-90500
X21500Y-83500
X21500Y-90500
X22500Y-83500
X22500Y-90500
X23500Y-83500
X23500Y-90500
X24500Y-83500
X24500Y-90500
X77500Y-43500
X77500Y-50500
X78500Y-43500
X78500Y-50500
X79500Y-43500
X79500Y-50500
X80500Y-43500
X80500Y-50500
X81500Y-43500
X81500Y-50500
X82500Y-43500
X82500Y-50500
X83500Y-43500
X83500Y-50500
X84500Y-43500
X84500Y-50500
X27500Y-53500
X27500Y-60500
X28500Y-53500
X28500Y-60500
X29500Y-53500
X29500Y-60500
X30500Y-53500
X30500Y-60500
X31500Y-53500
X31500Y-60500
X32500Y-53500
X32500Y-60500
X33500Y-53500
X33500Y-60500
X34500Y-53500
X34500Y-60500
X67500Y-73500
X67500Y-80500
X68500Y-73500
X68500Y-80500
X69500Y-73500
X69500Y-80500
X70500Y-73500
X70500Y-80500
X71500Y-73500
X71500Y-80500
X72500Y-73500
X72500Y-80500
X73500Y-73500
X73500Y-80500
X74500Y-73500
X74500Y-80500
X67500Y-33500
X67500Y-40500
X68500Y-33500
X68500Y-40500
X69500Y-33500
X69500Y-40500
X70500Y-33500
X70500Y-40500
X71500Y-33500
X71500Y-40500
X72500Y-33500
X72500Y-40500
X73500Y-33500
X73500Y-40500
X74500Y-33500
X74500Y-40500
X37500Y-73500
X37500Y-80500
X38500Y-73500
X38500Y-80500
X39500Y-73500
X39500Y-80500
X40500Y-73500
X40500Y-80500
X41500Y-73500
X41500Y-80500
X42500Y-73500
X42500Y-80500
X43500Y-73500
X43500Y-80500
X44500Y-73500
X44500Y-80500
X77500Y-73500
X77500Y-80500
X78500Y-73500
X78500Y-80500
X79500Y-73500
X79500Y-80500
X80500Y-73500
X80500Y-80500
X81500Y-73500
X81500Y-80500
X82500Y-73500
X82500Y-80500
X83500Y-73500
X83500Y-80500
X84500Y-73500
X84500Y-80500
X37500Y-33500
X37500Y-40500
X38500Y-33500
X38500Y-40500
X39500Y-33500
X39500Y-40500
X40500Y-33500
X40500Y-40500
X41500Y-33500
X41500Y-40500
X42500Y-33500
X42500Y-40500
X43500Y-33500
X43500Y-40500
X44500Y-33500
X44500Y-40500
X97500Y-53500
X97500Y-60500
X98500Y-53500
X98500Y-60500
X99500Y-53500
X99500Y-60500
X100500Y-53500
X100500Y-60500
X101500Y-53500
X101500Y-60500
X102500Y-53500
X102500Y-60500
X103500Y-53500
X103500Y-60500
X104500Y-53500
X104500Y-60500
X7500Y-103500
X7500Y-110500
X8500Y-103500
X8500Y-110500
X9500Y-103500
X9500Y-110500
X10500Y-103500
X10500Y-110500
X11500Y-103500
X11500Y-110500
X12500Y-103500
X12500Y-110500
X13500Y-103500
X13500Y-110500
X14500Y-103500
X14500Y-110500
X97500Y-23500
X97500Y-30500
X98500Y-23500
X98500Y-30500
X99500Y-23500
X99500Y-30500
X100500Y-23500
X100500Y-30500
X101500Y-23500
X101500Y-30500
X102500Y-23500
X102500Y-30500
X103500Y-23500
X103500Y-30500
X104500Y-23500
X104500Y-30500
X67500Y-53500
X67500Y-60500
X68500Y-53500
X68500Y-60500
X69500Y-53500
X69500Y-60500
X70500Y-53500
X70500Y-60500
X71500Y-53500
X71500Y-60500
X72500Y-53500
X72500Y-60500
X73500Y-53500
X73500Y-60500
X74500Y-53500
X74500Y-60500
X27500Y-93500
X27500Y-100500
X28500Y-93500
X28500Y-100500
X29500Y-93500
X29500Y-100500
X30500Y-93500
X30500Y-100500
X31500Y-93500
X31500Y-100500
X32500Y-93500
X32500Y-100500
X33500Y-93500
X33500Y-100500
X34500Y-93500
X34500Y-100500
X47500Y-23500
X47500Y-30500
X48500Y-23500
X48500Y-30500
X49500Y-23500
X49500Y-30500
X50500Y-23500
X50500Y-30500
X51500Y-23500
X51500Y-30500
X52500Y-23500
X52500Y-30500
X53500Y-23500
X53500Y-30500
X54500Y-23500
X54500Y-30500
X47500Y-53500
X47500Y-60500
X48500Y-53500
X48500Y-60500
X49500Y-53500
X49500Y-60500
X50500Y-53500
X50500Y-60500
X51500Y-53500
X51500Y-60500
X52500Y-53500
X52500Y-60500
X53500Y-53500
X53500Y-60500
X54500Y-53500
X54500Y-60500
X77500Y-83500
X77500Y-90500
X78500Y-83500
X78500Y-90500
X79500Y-83500
X79500Y-90500
X80500Y-83500
X80500Y-90500
X81500Y-83500
X81500Y-90500
X82500Y-83500
X82500Y-90500
X83500Y-83500
X83500Y-90500
X84500Y-83500
X84500Y-90500
X7500Y-23500
X7500Y-30500
X8500Y-23500
X8500Y-30500
X9500Y-23500
X9500Y-30500
X10500Y-23500
X10500Y-30500
X11500Y-23500
X11500Y-30500
X12500Y-23500
X12500Y-30500
X13500Y-23500
X13500Y-30500
X14500Y-23500
X14500Y-30500
X57500Y-103500
X57500Y-110500
X58500Y-103500
X58500Y-110500
X59500Y-103500
X59500Y-110500
X60500Y-103500
X60500Y-110500
X61500Y-103500
X61500Y-110500
X62500Y-103500
X62500Y-110500
X63500Y-103500
X63500Y-110500
X64500Y-103500
X64500Y-110500
X57500Y-43500
X57500Y-50500
X58500Y-43500
X58500Y-50500
X59500Y-43500
X59500Y-50500
X60500Y-43500
X60500Y-50500
X61500Y-43500
X61500Y-50500
X62500Y-43500
X62500Y-50500
X63500Y-43500
X63500Y-50500
X64500Y-43500
X64500Y-50500
X87500Y-93500
X87500Y-100500
X88500Y-93500
X88500Y-100500
X89500Y-93500
X89500Y-100500
X90500Y-93500
X90500Y-100500
X91500Y-93500
X91500Y-100500
X92500Y-93500
X92500Y-100500
X93500Y-93500
X93500Y-100500
X94500Y-93500
X94500Y-100500
X67500Y-13500
X67500Y-20500
X68500Y-13500
X68500Y-20500
X69500Y-13500
X69500Y-20500
X70500Y-13500
X70500Y-20500
X71500Y-13500
X71500Y-20500
X72500Y-13500
X72500Y-20500
X73500Y-13500
X73500Y-20500
X74500Y-13500
X74500Y-20500
X77500Y-93500
X77500Y-100500
X78500Y-93500
X78500Y-100500
X79500Y-93500
X79500Y-100500
X80500Y-93500
X80500Y-100500
X81500Y-93500
X81500Y-100500
X82500Y-93500
X82500Y-100500
X83500Y-93500
X83500Y-100500
X84500Y-93500
X84500Y-100500
X17500Y-63500
X17500Y-70500
X18500Y-63500
X18500Y-70500
X19500Y-63500
X19500Y-70500
X20500Y-63500
X20500Y-70500
X21500Y-63500
X21500Y-70500
X22500Y-63500
X22500Y-70500
X23500Y-63500
X23500Y-70500
X24500Y-63500
X24500Y-70500
X97500Y-33500
X97500Y-40500
X98500Y-33500
X98500Y-40500
X99500Y-33500
X99500Y-40500
X100500Y-33500
X100500Y-40500
X101500Y-33500
X101500Y-40500
X102500Y-33500
X102500Y-40500
X103500Y-33500
X103500Y-40500
X104500Y-33500
X104500Y-40500
X87500Y-13500
X87500Y-20500
X88500Y-13500
X88500Y-20500
X89500Y-13500
X89500Y-20500
X90500Y-13500
X90500Y-20500
X91500Y-13500
X91500Y-20500
X92500Y-13500
X92500Y-20500
X93500Y-13500
X93500Y-20500
X94500Y-13500
X94500Y-20500
X67500Y-83500
X67500Y-90500
X68500Y-83500
X68500Y-90500
X69500Y-83500
X69500Y-90500
X70500Y-83500
X70500Y-90500
X71500Y-83500
X71500Y-90500
X72500Y-83500
X72500Y-90500
X73500Y-83500
X73500Y-90500
X74500Y-83500
X74500Y-90500
X37500Y-43500
X37500Y-50500
X38500Y-43500
X38500Y-50500
X39500Y-43500
X39500Y-50500
X40500Y-43500
X40500Y-50500
X41500Y-43500
X41500Y-50500
X42500Y-43500
X42500Y-50500
X43500Y-43500
X43500Y-50500
X44500Y-43500
X44500Y-50500
X67500Y-63500
X67500Y-70500
X68500Y-63500
X68500Y-70500
X69500Y-63500
X69500Y-70500
X70500Y-63500
X70500Y-70500
X71500Y-63500
X71500Y-70500
X72500Y-63500
X72500Y-70500
X73500Y-63500
X73500Y-70500
X74500Y-63500
X74500Y-70500
X17500Y-13500
X17500Y-20500
X18500Y-13500
X18500Y-20500
X19500Y-13500
X19500Y-20500
X20500Y-13500
X20500Y-20500
X21500Y-13500
X21500Y-20500
X22500Y-13500
X22500Y-20500
X23500Y-13500
X23500Y-20500
X24500Y-13500
X24500Y-20500
X47500Y-93500
X47500Y-100500
X48500Y-93500
X48500Y-100500
X49500Y-93500
X49500Y-100500
X50500Y-93500
X50500Y-100500
X51500Y-93500
X51500Y-100500
X52500Y-93500
X52500Y-100500
X53500Y-93500
X53500Y-100500
X54500Y-93500
X54500Y-100500
X7500Y-53500
X7500Y-60500
X8500Y-53500
X8500Y-60500
X9500Y-53500
X9500Y-60500
X10500Y-53500
X10500Y-60500
X11500Y-53500
X11500Y-60500
X12500Y-53500
X12500Y-60500
X13500Y-53500
X13500Y-60500
X14500Y-53500
X14500Y-60500
X17500Y-43500
X17500Y-50500
X18500Y-43500
X18500Y-50500
X19500Y-43500
X19500Y-50500
X20500Y-43500
X20500Y-50500
X21500Y-43500
X21500Y-50500
X22500Y-43500
X22500Y-50500
X23500Y-43500
X23500Y-50500
X24500Y-43500
X24500Y-50500
X7500Y-13500
X7500Y-20500
X8500Y-13500
X8500Y-20500
X9500Y-13500
X9500Y-20500
X10500Y-13500
X10500Y-20500
X11500Y-13500
X11500Y-20500
X12500Y-13500
X12500Y-20500
X13500Y-13500
X13500Y-20500
X14500Y-13500
X14500Y-20500
X97500Y-73500
X97500Y-80500
X98500Y-73500
X98500Y-80500
X99500Y-73500
X99500Y-80500
X100500Y-73500
X100500Y-80500
X101500Y-73500
X101500Y-80500
X102500Y-73500
X102500Y-80500
X103500Y-73500
X103500Y-80500
X104500Y-73500
X104500Y-80500
X7500Y-43500
X7500Y-50500
X8500Y-43500
X8500Y-50500
X9500Y-43500
X9500Y-50500
X10500Y-43500
X10500Y-50500
X11500Y-43500
X11500Y-50500
X12500Y-43500
X12500Y-50500
X13500Y-43500
X13500Y-50500
X14500Y-43500
X14500Y-50500
X97500Y-63500
X97500Y-70500
X98500Y-63500
X98500Y-70500
X99500Y-63500
X99500Y-70500
X100500Y-63500
X100500Y-70500
X101500Y-63500
X101500Y-70500
X102500Y-63500
X102500Y-70500
X103500Y-63500
X103500Y-70500
X104500Y-63500
X104500Y-70500
X57500Y-73500
X57500Y-80500
X58500Y-73500
X58500Y-80500
X59500Y-73500
X59500Y-80500
X60500Y-73500
X60500Y-80500
X61500Y-73500
X61500Y-80500
X62500Y-73500
X62500Y-80500
X63500Y-73500
X63500Y-80500
X64500Y-73500
X64500Y-80500
X57500Y-33500
X57500Y-40500
X58500Y-33500
X58500Y-40500
X59500Y-33500
X59500Y-40500
X60500Y-33500
X60500Y-40500
X61500Y-33500
X61500Y-40500
X62500Y-33500
X62500Y-40500
X63500Y-33500
X63500Y-40500
X64500Y-33500
X64500Y-40500
X27500Y-73500
X27500Y-80500
X28500Y-73500
X28500Y-80500
X29500Y-73500
X29500Y-80500
X30500Y-73500
X30500Y-80500
X31500Y-73500
X31500Y-80500
X32500Y-73500
X32500Y-80500
X33500Y-73500
X33500Y-80500
X34500Y-73500
X34500Y-80500
X47500Y-73500
X47500Y-80500
X48500Y-73500
X48500Y-80500
X49500Y-73500
X49500Y-80500
X50500Y-73500
X50500Y-80500
X51500Y-73500
X51500Y-80500
X52500Y-73500
X52500Y-80500
X53500Y-73500
X53500Y-80500
X54500Y-73500
X54500Y-80500
X27500Y-33500
X27500Y-40500
X28500Y-33500
X28500Y-40500
X29500Y-33500
X29500Y-40500
X30500Y-33500
X30500Y-40500
X31500Y-33500
X31500Y-40500
X32500Y-33500
X32500Y-40500
X33500Y-33500
X33500Y-40500
X34500Y-33500
X34500Y-40500
X87500Y-103500
X87500Y-110500
X88500Y-103500
X88500Y-110500
X89500Y-103500
X89500Y-110500
X90500Y-103500
X90500Y-110500
X91500Y-103500
X91500Y-110500
X92500Y-103500
X92500Y-110500
X93500Y-103500
X93500Y-110500
X94500Y-103500
X94500Y-110500
X7500Y-63500
X7500Y-70500
X8500Y-63500
X8500Y-70500
X9500Y-63500
X9500Y-70500
X10500Y-63500
X10500Y-70500
X11500Y-63500
X11500Y-70500
X12500Y-63500
X12500Y-70500
X13500Y-63500
X13500Y-70500
X14500Y-63500
X14500Y-70500
X67500Y-93500
X67500Y-100500
X68500Y-93500
X68500Y-100500
X69500Y-93500
X69500Y-100500
X70500Y-93500
X70500Y-100500
X71500Y-93500
X71500Y-100500
X72500Y-93500
X72500Y-100500
X73500Y-93500
X73500Y-100500
X74500Y-93500
X74500Y-100500
X57500Y-23500
X57500Y-30500
X58500Y-23500
X58500Y-30500
X59500Y-23500
X59500Y-30500
X60500Y-23500
X60500Y-30500
X61500Y-23500
X61500Y-30500
X62500Y-23500
X62500Y-30500
X63500Y-23500
X63500Y-30500
X64500Y-23500
X64500Y-30500
X27500Y-63500
X27500Y-70500
X28500Y-63500
X28500Y-70500
X29500Y-63500
X29500Y-70500
X30500Y-63500
X30500Y-70500
X31500Y-63500
X31500Y-70500
X32500Y-63500
X32500Y-70500
X33500Y-63500
X33500Y-70500
X34500Y-63500
X34500Y-70500
X17500Y-93500
X17500Y-100500
X18500Y-93500
X18500Y-100500
X19500Y-93500
X19500Y-100500
X20500Y-93500
X20500Y-100500
X21500Y-93500
X21500Y-100500
X22500Y-93500
X22500Y-100500
X23500Y-93500
X23500Y-100500
X24500Y-93500
X24500Y-100500
X77500Y-23500
X77500Y-30500
X78500Y-23500
X78500Y-30500
X79500Y-23500
X79500Y-30500
X80500Y-23500
X80500Y-30500
X81500Y-23500
X81500Y-30500
X82500Y-23500
X82500Y-30500
X83500Y-23500
X83500Y-30500
X84500Y-23500
X84500Y-30500
X67500Y-103500
X67500Y-110500
X68500Y-103500
X68500Y-110500
X69500Y-103500
X69500Y-110500
X70500Y-103500
X70500Y-110500
X71500Y-103500
X71500Y-110500
X72500Y-103500
X72500Y-110500
X73500Y-103500
X73500Y-110500
X74500Y-103500
X74500Y-110500
X37500Y-53500
X37500Y-60500
X38500Y-53500
X38500Y-60500
X39500Y-53500
X39500Y-60500
X40500Y-53500
X40500Y-60500
X41500Y-53500
X41500Y-60500
X42500Y-53500
X42500Y-60500
X43500Y-53500
X43500Y-60500
X44500Y-53500
X44500Y-60500
X57500Y-83500
X57500Y-90500
X58500Y-83500
X58500Y-90500
X59500Y-83500
X59500Y-90500
X60500Y-83500
X60500Y-90500
X61500Y-83500
X61500Y-90500
X62500Y-83500
X62500Y-90500
X63500Y-83500
X63500Y-90500
X64500Y-83500
X64500Y-90500
X97500Y-13500
X97500Y-20500
X98500Y-13500
X98500Y-20500
X99500Y-13500
X99500Y-20500
X100500Y-13500
X100500Y-20500
X101500Y-13500
X101500Y-20500
X102500Y-13500
X102500Y-20500
X103500Y-13500
X103500Y-20500
X104500Y-13500
X104500Y-20500
X47500Y-103500
X47500Y-110500
X48500Y-103500
X48500Y-110500
X49500Y-103500
X49500Y-110500
X50500Y-103500
X50500Y-110500
X51500Y-103500
X51500Y-110500
X52500Y-103500
X52500Y-110500
X53500Y-103500
X53500Y-110500
X54500Y-103500
X54500Y-110500
X57500Y-63500
X57500Y-70500
X58500Y-63500
X58500Y-70500
X59500Y-63500
X59500Y-70500
X60500Y-63500
X60500Y-70500
X61500Y-63500
X61500Y-70500
X62500Y-63500
X62500Y-70500
X63500Y-63500
X63500Y-70500
X64500Y-63500
X64500Y-70500
X47500Y-83500
X47500Y-90500
X48500Y-83500
X48500Y-90500
X49500Y-83500
X49500Y-90500
X50500Y-83500
X50500Y-90500
X51500Y-83500
X51500Y-90500
X52500Y-83500
X52500Y-90500
X53500Y-83500
X53500Y-90500
X54500Y-83500
X54500Y-90500
X47500Y-13500
X47500Y-20500
X48500Y-13500
X48500Y-20500
X49500Y-13500
X49500Y-20500
X50500Y-13500
X50500Y-20500
X51500Y-13500
X51500Y-20500
X52500Y-13500
X52500Y-20500
X53500Y-13500
X53500Y-20500
X54500Y-13500
X54500Y-20500
X57500Y-93500
X57500Y-100500
X58500Y-93500
X58500Y-100500
X59500Y-93500
X59500Y-100500
X60500Y-93500
X60500Y-100500
X61500Y-93500
X61500Y-100500
X62500Y-93500
X62500Y-100500
X63500Y-93500
X63500Y-100500
X64500Y-93500
X64500Y-100500
X77500Y-53500
X77500Y-60500
X78500Y-53500
X78500Y-60500
X79500Y-53500
X79500Y-60500
X80500Y-53500
X80500Y-60500
X81500Y-53500
X81500Y-60500
X82500Y-53500
X82500Y-60500
X83500Y-53500
X83500Y-60500
X84500Y-53500
X84500Y-60500
X77500Y-33500
X77500Y-40500
X78500Y-33500
X78500Y-40500
X79500Y-33500
X79500Y-40500
X80500Y-33500
X80500Y-40500
X81500Y-33500
X81500Y-40500
X82500Y-33500
X82500Y-40500
X83500Y-33500
X83500Y-40500
X84500Y-33500
X84500Y-40500
X37500Y-13500
X37500Y-20500
X38500Y-13500
X38500Y-20500
X39500Y-13500
X39500Y-20500
X40500Y-13500
X40500Y-20500
X41500Y-13500
X41500Y-20500
X42500Y-13500
X42500Y-20500
X43500Y-13500
X43500Y-20500
X44500Y-13500
X44500Y-20500
X27500Y-83500
X27500Y-90500
X28500Y-83500
X28500Y-90500
X29500Y-83500
X29500Y-90500
X30500Y-83500
X30500Y-90500
X31500Y-83500
X31500Y-90500
X32500Y-83500
X32500Y-90500
X33500Y-83500
X33500Y-90500
X34500Y-83500
X34500Y-90500
X27500Y-43500
X27500Y-50500
X28500Y-43500
X28500Y-50500
X29500Y-43500
X29500Y-50500
X30500Y-43500
X30500Y-50500
X31500Y-43500
X31500Y-50500
X32500Y-43500
X32500Y-50500
X33500Y-43500
X33500Y-50500
X34500Y-43500
X34500Y-50500
X87500Y-53500
X87500Y-60500
X88500Y-53500
X88500Y-60500
X89500Y-53500
X89500Y-60500
X90500Y-53500
X90500Y-60500
X91500Y-53500
X91500Y-60500
X92500Y-53500
X92500Y-60500
X93500Y-53500
X93500Y-60500
X94500Y-53500
X94500Y-60500
X37500Y-23500
X37500Y-30500
X38500Y-23500
X38500Y-30500
X39500Y-23500
X39500Y-30500
X40500Y-23500
X40500Y-30500
X41500Y-23500
X41500Y-30500
X42500Y-23500
X42500Y-30500
X43500Y-23500
X43500Y-30500
X44500Y-23500
X44500Y-30500
X87500Y-83500
X87500Y-90500
X88500Y-83500
X88500Y-90500
X89500Y-83500
X89500Y-90500
X90500Y-83500
X90500Y-90500
X91500Y-83500
X91500Y-90500
X92500Y-83500
X92500Y-90500
X93500Y-83500
X93500Y-90500
X94500Y-83500
X94500Y-90500
X87500Y-43500
X87500Y-50500
X88500Y-43500
X88500Y-50500
X89500Y-43500
X89500Y-50500
X90500Y-43500
X90500Y-50500
X91500Y-43500
X91500Y-50500
X92500Y-43500
X92500Y-50500
X93500Y-43500
X93500Y-50500
X94500Y-43500
X94500Y-50500
X7500Y-33500
X7500Y-40500
X8500Y-33500
X8500Y-40500
X9500Y-33500
X9500Y-40500
X10500Y-33500
X10500Y-40500
X11500Y-33500
X11500Y-40500
X12500Y-33500
X12500Y-40500
X13500Y-33500
X13500Y-40500
X14500Y-33500
X14500Y-40500
X57500Y-13500
X57500Y-20500
X58500Y-13500
X58500Y-20500
X59500Y-13500
X59500Y-20500
X60500Y-13500
X60500Y-20500
X61500Y-13500
X61500Y-20500
X62500Y-13500
X62500Y-20500
X63500Y-13500
X63500Y-20500
X64500Y-13500
X64500Y-20500
X87500Y-73500
X87500Y-80500
X88500Y-73500
X88500Y-80500
X89500Y-73500
X89500Y-80500
X90500Y-73500
X90500Y-80500
X91500Y-73500
X91500Y-80500
X92500Y-73500
X92500Y-80500
X93500Y-73500
X93500Y-80500
X94500Y-73500
X94500Y-80500
X87500Y-33500
X87500Y-40500
X88500Y-33500
X88500Y-40500
X89500Y-33500
X89500Y-40500
X90500Y-33500
X90500Y-40500
X91500Y-33500
X91500Y-40500
X92500Y-33500
X92500Y-40500
X93500Y-33500
X93500Y-40500
X94500Y-33500
X94500Y-40500
X97500Y-103500
X97500Y-110500
X98500Y-103500
X98500Y-110500
X99500Y-103500
X99500Y-110500
X100500Y-103500
X100500Y-110500
X101500Y-103500
X101500Y-110500
X102500Y-103500
X102500Y-110500
X103500Y-103500
X103500Y-110500
X104500Y-103500
X104500Y-110500
X87500Y-63500
X87500Y-70500
X88500Y-63500
X88500Y-70500
X89500Y-63500
X89500Y-70500
X90500Y-63500
X90500Y-70500
X91500Y-63500
X91500Y-70500
X92500Y-63500
X92500Y-70500
X93500Y-63500
X93500Y-70500
X94500Y-63500
X94500Y-70500
X97500Y-93500
X97500Y-100500
X98500Y-93500
X98500Y-100500
X99500Y-93500
X99500Y-100500
X100500Y-93500
X100500Y-100500
X101500Y-93500
X101500Y-100500
X102500Y-93500
X102500Y-100500
X103500Y-93500
X103500Y-100500
X104500Y-93500
X104500Y-100500
X47500Y-33500
X47500Y-40500
X48500Y-33500
X48500Y-40500
X49500Y-33500
X49500Y-40500
X50500Y-33500
X50500Y-40500
X51500Y-33500
X51500Y-40500
X52500Y-33500
X52500Y-40500
X53500Y-33500
X53500Y-40500
X54500Y-33500
X54500Y-40500
T3
X5500Y-90900
X5500Y-92277
X5500Y-93655
X5500Y-95033
T4
X5008Y-99325
X5008Y-100900
X5008Y-102475
X5992Y-99325
X5992Y-100900
X5992Y-102475
T5
X5500Y-97652
X5500Y-104148
T6
X106500Y-11500
X5500Y-112500
X106500Y-112500
X5500Y-11500
T0
M30
