M48
INCH,TZ
T1C0.0118
T2C0.0157
T3C0.0276
T4C0.1260
%
G90
G05
T1
X8713Y-24453
X8819Y-25323
X8925Y-26189
X9028Y-24429
X9028Y-27028
X9031Y-24122
X9122Y-25276
X9122Y-27894
X9224Y-26142
X9228Y-28748
X9323Y-26992
X9335Y-29610
X9425Y-27858
X9433Y-30476
X9528Y-28709
X9535Y-31327
X9594Y-24358
X9630Y-29571
X9634Y-32181
X9685Y-25224
X9728Y-30433
X9736Y-33055
X9791Y-26091
X9831Y-31299
X9835Y-33902
X9894Y-26957
X9929Y-24319
X9929Y-32150
X9945Y-34780
X9992Y-27819
X10000Y-25177
X10035Y-33024
X10039Y-35626
X10041Y-24039
X10087Y-28650
X10114Y-26051
X10138Y-33890
X10142Y-36480
X10189Y-29524
X10209Y-26909
X10240Y-34752
X10244Y-37343
X10291Y-30378
X10311Y-27780
X10339Y-35602
X10390Y-31232
X10402Y-28618
X10441Y-36457
X10496Y-24260
X10496Y-32102
X10500Y-29469
X10543Y-37319
X10583Y-25122
X10598Y-30339
X10598Y-32972
X10689Y-25972
X10693Y-31197
X10693Y-33803
X10780Y-26843
X10795Y-34677
X10803Y-32071
X10819Y-24224
X10828Y-23914
X10878Y-27701
X10894Y-25083
X10898Y-35531
X10902Y-32925
X10969Y-28563
X10996Y-36382
X11000Y-25949
X11000Y-33768
X11063Y-29406
X11094Y-26803
X11098Y-34642
X11098Y-37248
X11165Y-30276
X11193Y-27665
X11197Y-35496
X11264Y-31138
X11280Y-28524
X11295Y-36358
X11358Y-31992
X11382Y-29370
X11394Y-24157
X11398Y-37224
X11453Y-32843
X11469Y-30240
X11488Y-25016
X11555Y-33740
X11575Y-31098
X11583Y-25886
X11646Y-34571
X11665Y-31949
X11677Y-26752
X11720Y-24118
X11748Y-35433
X11756Y-32811
X11772Y-27598
X11811Y-24988
X11843Y-36303
X11856Y-23823
X11866Y-28457
X11870Y-33705
X11894Y-25846
X11941Y-37157
X11957Y-29319
X11965Y-34539
X11996Y-26717
X12051Y-30173
X12051Y-35406
X12091Y-27567
X12150Y-31039
X12154Y-36268
X12173Y-28429
X12240Y-31894
X12252Y-37122
X12260Y-29283
X12299Y-24067
X12335Y-32768
X12358Y-30138
X12394Y-24925
X12429Y-33626
X12453Y-31008
X12484Y-25776
X12520Y-34469
X12551Y-31858
X12575Y-26646
X12618Y-35350
X12626Y-24031
X12630Y-23724
X12638Y-32736
X12665Y-27524
X12709Y-24890
X12709Y-36181
X12732Y-33594
X12760Y-28366
X12787Y-25740
X12803Y-37047
X12827Y-34437
X12846Y-29220
X12882Y-26602
X12917Y-35319
X12933Y-30087
X12976Y-27484
X13008Y-36157
X13031Y-30953
X13063Y-28331
X13102Y-37024
X13114Y-31803
X13150Y-29193
X13201Y-23972
X13209Y-32665
X13240Y-30043
X13272Y-24831
X13295Y-33524
X13335Y-30913
X13366Y-25697
X13390Y-34386
X13421Y-31756
X13457Y-26567
X13476Y-35240
X13512Y-32642
X13528Y-23933
X13535Y-23634
X13539Y-27413
X13567Y-36118
X13598Y-24799
X13602Y-33492
X13630Y-28268
X13661Y-36961
X13685Y-25669
X13693Y-34354
X13720Y-29134
X13772Y-35213
X13780Y-26531
X13803Y-29972
X13858Y-27382
X13862Y-36075
X13890Y-30854
X13941Y-28236
X13957Y-36929
X13984Y-31705
X14039Y-29098
X14071Y-32571
X14106Y-23878
X14122Y-29945
X14157Y-33425
X14181Y-24744
X14209Y-30831
X14248Y-34303
X14256Y-25610
X14287Y-31689
X14339Y-35173
X14346Y-26480
X14386Y-32547
X14425Y-36028
X14429Y-23542
X14429Y-27339
X14433Y-23839
X14469Y-33398
X14500Y-24709
X14512Y-36890
X14516Y-28189
X14551Y-34276
X14583Y-25587
X14598Y-29039
X14638Y-35130
X14673Y-26441
X14681Y-29890
X14728Y-35984
X14752Y-27307
X14772Y-30772
X14811Y-36846
X14839Y-28146
X14858Y-31626
X14913Y-29016
X14937Y-32488
X15004Y-29890
X15008Y-23787
X15024Y-33354
X15079Y-30736
X15087Y-24650
X15110Y-34217
X15165Y-25520
X15169Y-31594
X15197Y-35079
X15252Y-26378
X15256Y-32469
X15287Y-35945
X15327Y-27240
X15335Y-23760
X15339Y-33327
X15366Y-36819
X15402Y-24634
X15413Y-28114
X15417Y-34201
X15450Y-23487
X15480Y-25492
X15492Y-28961
X15508Y-35051
X15559Y-26343
X15571Y-29819
X15591Y-35925
X15642Y-27213
X15654Y-30681
X15673Y-36764
X15720Y-28083
X15732Y-31531
X15799Y-28933
X15819Y-32402
X15870Y-29783
X15898Y-33264
X15909Y-23717
X15965Y-30665
X15980Y-34138
X15988Y-24575
X16043Y-31516
X16063Y-25441
X16063Y-34988
X16122Y-32394
X16142Y-26287
X16146Y-35854
X16205Y-33252
X16220Y-27157
X16224Y-36724
X16232Y-23685
X16283Y-34106
X16291Y-24555
X16303Y-28024
X16362Y-34972
X16374Y-25398
X16378Y-28886
X16445Y-35835
X16453Y-29752
X16457Y-26260
X16524Y-36681
X16528Y-27134
X16531Y-30602
X16587Y-23370
X16606Y-27996
X16606Y-31472
X16689Y-28866
X16689Y-32319
X16752Y-29709
X16764Y-33189
X16815Y-23634
X16827Y-30571
X16843Y-34059
X16902Y-24488
X16917Y-31453
X16921Y-34894
X16972Y-25358
X16992Y-32299
X17000Y-35776
X17043Y-26217
X17063Y-33173
X17079Y-36650
X17126Y-27087
X17142Y-23602
X17146Y-34031
X17197Y-27937
X17205Y-24469
X17220Y-34890
X17268Y-28807
X17272Y-25331
X17299Y-35752
X17343Y-29654
X17350Y-26189
X17374Y-36618
X17413Y-30520
X17425Y-27051
X17472Y-23319
X17492Y-31386
X17496Y-27921
X17563Y-32248
X17567Y-28780
X17638Y-33110
X17642Y-29634
X17677Y-21421
X17713Y-33988
X17717Y-23555
X17720Y-30504
X17783Y-34819
X17791Y-31374
X17795Y-24409
X17858Y-35689
X17862Y-25283
X17866Y-32217
X17929Y-21204
X17933Y-26146
X17933Y-36563
X17937Y-33083
X18004Y-27000
X18012Y-33972
X18051Y-23531
X18083Y-27874
X18087Y-34815
X18098Y-24394
X18150Y-28736
X18154Y-35661
X18173Y-25252
X18197Y-21378
X18217Y-29591
X18232Y-26122
X18232Y-36535
X18287Y-30453
X18311Y-26980
X18358Y-31319
X18382Y-27850
X18398Y-23256
X18429Y-32185
X18441Y-21204
X18453Y-28705
X18500Y-33047
X18528Y-29575
X18571Y-33902
X18594Y-30421
X18618Y-23492
X18642Y-34756
X18665Y-31287
X18687Y-21368
X18705Y-24339
X18713Y-35630
X18732Y-32154
X18776Y-25193
X18791Y-36516
X18803Y-33024
X18839Y-26059
X18870Y-33878
X18906Y-26929
X18937Y-21205
X18941Y-34732
X18957Y-23465
X18972Y-27780
X19008Y-24331
X19012Y-35587
X19039Y-28650
X19075Y-25181
X19083Y-36453
X19106Y-29520
X19138Y-26039
X19169Y-30382
X19185Y-21402
X19209Y-26917
X19236Y-31228
X19276Y-19693
X19276Y-27772
X19297Y-23207
X19303Y-32106
X19343Y-28638
X19370Y-32969
X19406Y-29500
X19437Y-21213
X19437Y-33835
X19472Y-30358
X19499Y-22223
X19504Y-34681
X19524Y-23425
X19535Y-31232
X19571Y-35559
X19602Y-24268
X19602Y-32083
X19626Y-19665
X19638Y-36413
X19665Y-25142
X19669Y-32949
X19732Y-26000
X19736Y-33807
X19795Y-26874
X19803Y-34665
X19850Y-23390
X19854Y-27720
X19870Y-35535
X19909Y-24256
X19916Y-22230
X19925Y-28579
X19933Y-36378
X19969Y-25118
X19984Y-29437
X20039Y-25980
X20047Y-30323
X20094Y-26854
X20110Y-31173
X20157Y-27709
X20177Y-32039
X20216Y-23161
X20228Y-28579
X20240Y-32913
X20287Y-29429
X20303Y-33776
X20358Y-30303
X20370Y-34630
X20413Y-31138
X20433Y-35492
X20437Y-23358
X20484Y-32024
X20500Y-24205
X20500Y-36366
X20535Y-32882
X20559Y-25075
X20606Y-33768
X20622Y-25937
X20669Y-34610
X20681Y-26803
X20732Y-35469
X20748Y-27673
X20764Y-23335
X20795Y-36339
X20807Y-24181
X20807Y-28531
X20831Y-22281
X20870Y-25051
X20870Y-29370
X20925Y-25894
X20929Y-30256
X20988Y-26791
X20988Y-31098
X21044Y-22487
X21051Y-27654
X21051Y-31984
X21110Y-32835
X21114Y-28504
X21161Y-23024
X21173Y-29362
X21173Y-33697
X21232Y-30232
X21236Y-34563
X21295Y-31091
X21295Y-35433
X21339Y-23295
X21350Y-31949
X21358Y-36280
X21406Y-24146
X21413Y-32811
X21465Y-25020
X21472Y-33681
X21520Y-25874
X21535Y-34543
X21575Y-26744
X21594Y-35425
X21634Y-27594
X21657Y-36272
X21669Y-23276
X21693Y-28461
X21709Y-24126
X21748Y-29323
X21764Y-24992
X21807Y-30185
X21819Y-25858
X21859Y-21168
X21862Y-31047
X21874Y-26713
X21921Y-31894
X21937Y-27579
X21980Y-32772
X21992Y-28445
X21997Y-19454
X22019Y-23035
X22039Y-33650
X22051Y-29311
X22087Y-20220
X22094Y-34504
X22099Y-20767
X22106Y-30173
X22136Y-21064
X22154Y-35370
X22161Y-31028
X22213Y-36244
X22220Y-31894
X22240Y-23236
X22280Y-32764
X22297Y-20546
X22307Y-19957
X22307Y-24083
X22339Y-33642
X22362Y-24953
X22394Y-34480
X22417Y-25819
X22453Y-35358
X22469Y-26697
X22508Y-36205
X22524Y-19713
X22524Y-27528
X22563Y-23217
X22579Y-28409
X22610Y-24059
X22634Y-29276
X22665Y-24941
X22685Y-30138
X22720Y-25791
X22740Y-30996
X22768Y-26673
X22795Y-31882
X22823Y-27520
X22843Y-22890
X22850Y-32728
X22882Y-28394
X22902Y-33602
X22933Y-29252
X22961Y-34453
X22992Y-30122
X22994Y-19407
X23012Y-35315
X23029Y-19999
X23047Y-30980
X23063Y-36177
X23098Y-31850
X23099Y-19684
X23150Y-32693
X23154Y-23189
X23205Y-33575
X23209Y-24028
X23256Y-24902
X23264Y-34429
X23307Y-25764
X23319Y-35299
X23358Y-26618
X23374Y-36161
X23413Y-27480
X23461Y-28350
X23480Y-23161
X23508Y-24024
X23512Y-29224
X23563Y-30094
X23567Y-24882
X23610Y-25756
X23618Y-30933
X23665Y-26606
X23669Y-31787
X23717Y-27476
X23717Y-32681
X23768Y-28335
X23768Y-33524
X23819Y-29205
X23819Y-34382
X23870Y-18994
X23870Y-30075
X23870Y-35260
X23917Y-30902
X23925Y-36146
X23973Y-20780
X23976Y-31799
X23988Y-18591
X24012Y-21154
X24020Y-32665
X24040Y-19924
X24051Y-23130
X24075Y-33512
X24086Y-20216
X24101Y-20512
X24104Y-19268
X24110Y-23965
X24122Y-34378
X24129Y-18851
X24157Y-24843
X24177Y-35248
X24205Y-25689
X24228Y-36102
X24256Y-26583
X24303Y-27441
X24350Y-28307
X24386Y-23110
X24398Y-29165
X24417Y-23961
X24445Y-30008
X24469Y-24827
X24492Y-30882
X24508Y-25681
X24539Y-31752
X24559Y-26563
X24587Y-32626
X24606Y-27413
X24634Y-33492
X24654Y-28287
X24681Y-34354
X24697Y-29146
X24728Y-35217
X24748Y-29996
X24776Y-36075
X24791Y-30866
X24843Y-31740
X24886Y-32614
X24912Y-20138
X24933Y-33480
X24953Y-23083
X24963Y-19323
X24974Y-19619
X24980Y-34339
X24980Y-16350
X25016Y-23921
X25028Y-35213
X25059Y-24795
X25075Y-36055
X25106Y-25669
X25147Y-19859
X25154Y-26520
X25192Y-16569
X25197Y-27386
X25220Y-22287
X25232Y-28244
X25280Y-29122
X25287Y-23063
X25292Y-18372
X25301Y-21550
X25319Y-23917
X25327Y-29976
X25344Y-21134
X25366Y-30846
X25367Y-16809
X25370Y-24791
X25406Y-25646
X25409Y-31705
X25457Y-26500
X25457Y-32571
X25500Y-27374
X25500Y-33437
X25543Y-28236
X25543Y-34283
X25587Y-29110
X25594Y-35181
X25630Y-29953
X25634Y-36047
X25638Y-21878
X25665Y-30835
X25709Y-31693
X25760Y-32555
X25803Y-33425
X25842Y-21342
X25843Y-34276
X25854Y-20756
X25857Y-20459
X25862Y-23035
X25893Y-22230
X25894Y-35165
X25908Y-18765
X25917Y-23878
X25930Y-19639
X25937Y-36039
X25949Y-19201
X25957Y-24752
X26004Y-25622
X26039Y-26484
X26079Y-27346
X26119Y-18557
X26126Y-28197
X26146Y-18973
X26146Y-19423
X26154Y-20134
X26161Y-29079
X26177Y-19839
X26197Y-23020
X26205Y-29933
X26217Y-23866
X26244Y-30807
X26260Y-24740
X26280Y-17540
X26283Y-31681
X26303Y-25610
X26309Y-22350
X26312Y-17244
X26331Y-32516
X26343Y-26476
X26370Y-33394
X26382Y-27323
X26406Y-34252
X26425Y-28193
X26449Y-35110
X26457Y-29051
X26492Y-36000
X26508Y-29933
X26543Y-30780
X26563Y-17402
X26583Y-31657
X26630Y-32520
X26669Y-33386
X26705Y-34252
X26748Y-35098
X26768Y-22996
X26791Y-35988
X26794Y-17588
X26823Y-23854
X26854Y-24705
X26894Y-25579
X26933Y-26441
X26969Y-27311
X27012Y-28169
X27051Y-29028
X27083Y-29898
X27098Y-22980
X27122Y-23835
X27122Y-30752
X27157Y-24689
X27161Y-31614
X27193Y-25563
X27197Y-32488
X27236Y-26429
X27236Y-33346
X27272Y-34213
X27276Y-27283
X27311Y-28165
X27315Y-35079
X27350Y-29024
X27350Y-35945
X27390Y-29894
X27417Y-12965
X27425Y-30740
X27461Y-31606
X27500Y-32484
X27539Y-33343
X27579Y-34197
X27614Y-35071
X27654Y-35925
X27677Y-22961
X27712Y-22039
X27720Y-23815
X27756Y-24677
X27787Y-25528
X27827Y-26402
X27846Y-20661
X27854Y-27264
X27855Y-19223
X27898Y-28138
X27921Y-20980
X27925Y-28992
X27937Y-18768
X27948Y-14158
X27961Y-29874
X27972Y-14480
X27996Y-30744
X28004Y-22945
X28028Y-23795
X28031Y-31591
X28063Y-24669
X28063Y-32453
X28094Y-25524
X28102Y-33343
X28138Y-26390
X28142Y-34165
X28152Y-12023
X28161Y-27256
X28173Y-35043
X28197Y-28126
X28205Y-35921
X28236Y-28980
X28258Y-17022
X28268Y-29843
X28299Y-30705
X28322Y-11513
X28341Y-20767
X28343Y-31594
X28355Y-11807
X28368Y-22025
X28370Y-32449
X28406Y-33323
X28434Y-12113
X28441Y-34165
X28445Y-21249
X28453Y-13799
X28472Y-35035
X28476Y-18602
X28508Y-35894
X28535Y-17205
X28587Y-22921
X28602Y-18894
X28626Y-23760
X28642Y-11035
X28652Y-20702
X28657Y-24634
X28689Y-25496
X28693Y-11413
X28717Y-26366
X28717Y-12202
X28744Y-13614
X28748Y-27232
X28753Y-20348
X28783Y-28098
X28793Y-21517
X28811Y-28965
X28831Y-17354
X28839Y-29819
X28870Y-30701
X28894Y-15885
X28906Y-31559
X28913Y-22913
X28927Y-20593
X28933Y-32421
X28937Y-23768
X28939Y-21238
X28959Y-18859
X28969Y-24618
X28969Y-33287
X28988Y-25496
X28996Y-34154
X29028Y-26358
X29028Y-35008
X29059Y-27228
X29059Y-35886
X29079Y-19130
X29087Y-28094
X29118Y-28965
X29122Y-16247
X29154Y-29811
X29181Y-30681
X29186Y-22233
X29201Y-10685
X29213Y-31543
X29244Y-32413
X29245Y-15892
X29276Y-33272
X29311Y-34134
X29343Y-35000
X29366Y-35882
X29402Y-19039
X29425Y-16127
X29480Y-22894
X29524Y-23720
X29551Y-24614
X29579Y-25480
X29610Y-26335
X29638Y-27193
X29665Y-28067
X29697Y-28929
X29701Y-19205
X29728Y-29799
X29735Y-13144
X29756Y-22264
X29756Y-30650
X29780Y-31516
X29807Y-32390
X29811Y-22882
X29827Y-23724
X29832Y-21977
X29839Y-33252
X29858Y-24598
X29866Y-34102
X29894Y-25457
X29894Y-34980
X29921Y-26323
X29929Y-35862
X29949Y-27181
X29976Y-28059
X29980Y-13335
X29988Y-11630
X30004Y-28917
X30028Y-29799
X30039Y-15031
X30039Y-19303
X30044Y-22332
X30059Y-30638
X30087Y-31504
X30110Y-32390
X30142Y-33244
X30146Y-21744
X30165Y-34110
X30169Y-22064
X30189Y-12928
X30197Y-34984
X30228Y-35846
X30248Y-17366
X30287Y-15194
X30306Y-13344
X30323Y-10765
X30350Y-13638
X30390Y-11469
X30394Y-22862
X30396Y-11052
X30429Y-23713
X30457Y-24583
X30476Y-25425
X30486Y-10518
X30504Y-26307
X30531Y-27165
X30559Y-28039
X30579Y-28894
X30606Y-29768
X30630Y-30618
X30654Y-31496
X30660Y-21195
X30681Y-32374
X30705Y-33232
X30712Y-12949
X30724Y-22854
X30732Y-34091
X30740Y-23701
X30756Y-34965
X30764Y-24575
X30766Y-10419
X30780Y-35839
X30787Y-25433
X30815Y-26295
X30821Y-12674
X30839Y-27165
X30862Y-28028
X30886Y-28886
X30909Y-29768
X30929Y-30610
X30953Y-31496
X30980Y-32354
X31004Y-33232
X31031Y-34110
X31055Y-34969
X31079Y-35823
X31185Y-10492
X31307Y-22843
X31343Y-23669
X31362Y-24563
X31372Y-21275
X31382Y-25417
X31406Y-26280
X31425Y-27142
X31449Y-28016
X31472Y-28874
X31488Y-29748
X31508Y-30602
X31531Y-31476
X31551Y-32343
X31575Y-33209
X31598Y-34075
X31618Y-34949
X31634Y-22827
X31638Y-35811
X31642Y-23677
X31661Y-24539
X31681Y-25421
X31705Y-26272
X31728Y-27142
X31748Y-28008
X31772Y-28874
X31787Y-29736
X31811Y-30606
X31815Y-19976
X31815Y-21797
X31835Y-31476
X31854Y-32331
X31874Y-33205
X31902Y-34091
X31917Y-34937
X31941Y-35799
X32205Y-22815
X32236Y-23669
X32256Y-24528
X32272Y-25409
X32291Y-26248
X32311Y-27130
X32327Y-28000
X32346Y-28858
X32358Y-20094
X32359Y-20424
X32366Y-29724
X32382Y-30579
X32402Y-31453
X32425Y-32327
X32441Y-33189
X32457Y-34039
X32480Y-34937
X32496Y-35787
X32539Y-22807
X32543Y-20655
X32551Y-23657
X32563Y-24543
X32587Y-25409
X32602Y-26268
X32610Y-27138
X32638Y-27992
X32646Y-28850
X32662Y-22082
X32673Y-29713
X32685Y-30563
X32709Y-31433
X32724Y-32323
X32740Y-33177
X32764Y-34039
X32780Y-34917
X32795Y-35768
X33118Y-22799
X33134Y-23646
X33150Y-24520
X33154Y-10646
X33165Y-25394
X33181Y-26248
X33197Y-27118
X33213Y-27961
X33228Y-28843
X33244Y-29717
X33260Y-30579
X33276Y-31441
X33291Y-32307
X33307Y-33185
X33323Y-34051
X33339Y-34906
X33354Y-35764
X33449Y-22243
X33449Y-23646
X33457Y-22795
X33461Y-24516
X33469Y-25382
X33496Y-26236
X33508Y-27106
X33520Y-27957
X33535Y-28835
X33551Y-29713
X33567Y-30563
X33575Y-31441
X33602Y-32307
X33618Y-33177
X33630Y-34051
X33646Y-34906
X33657Y-35760
X33858Y-11835
X34020Y-22783
X34039Y-23626
X34047Y-24500
X34063Y-25378
X34075Y-26224
X34094Y-27094
X34106Y-27972
X34110Y-28823
X34126Y-29685
X34138Y-30547
X34146Y-31421
X34157Y-32283
X34169Y-33177
X34185Y-34012
X34193Y-34894
X34209Y-35752
X34213Y-17020
X34232Y-17321
X34265Y-22157
X34350Y-22780
X34358Y-23630
X34358Y-24504
X34374Y-25358
X34382Y-26236
X34402Y-27087
X34406Y-27965
X34413Y-28835
X34429Y-29689
X34437Y-30543
X34449Y-31409
X34461Y-32283
X34472Y-33181
X34488Y-34004
X34496Y-34909
X34508Y-35748
X34925Y-22776
X34957Y-23598
X34965Y-24492
X34972Y-25346
X34980Y-26217
X34988Y-27083
X34996Y-27937
X35004Y-28823
X35012Y-29685
X35020Y-30555
X35028Y-31406
X35039Y-32276
X35043Y-33154
X35055Y-33992
X35059Y-34878
X35071Y-35748
X35252Y-23630
X35256Y-22768
X35264Y-24492
X35272Y-25343
X35280Y-26224
X35283Y-22003
X35287Y-27094
X35295Y-27941
X35307Y-28815
X35311Y-29685
X35319Y-30547
X35331Y-31421
X35339Y-32276
X35350Y-33157
X35354Y-33992
X35358Y-34874
X35370Y-35740
X35768Y-21067
X35835Y-22772
X35843Y-23618
X35850Y-24488
X35850Y-25339
X35862Y-26224
X35862Y-27075
X35878Y-27957
X35878Y-28799
X35886Y-29677
X35890Y-30555
X35894Y-31425
X35902Y-32276
X35906Y-33126
X35913Y-33980
X35921Y-34854
X35925Y-35732
X36008Y-22020
X36150Y-24484
X36157Y-23610
X36161Y-25346
X36165Y-22764
X36169Y-27071
X36173Y-26213
X36181Y-27953
X36185Y-28807
X36189Y-29681
X36197Y-30535
X36201Y-31421
X36205Y-32276
X36209Y-33122
X36213Y-33996
X36220Y-34886
X36224Y-35740
X36465Y-21039
X36736Y-22764
X36748Y-24480
X36756Y-23618
X36756Y-25350
X36760Y-26209
X36760Y-27083
X36760Y-27957
X36764Y-28803
X36764Y-29677
X36772Y-30547
X36772Y-32268
X36776Y-31406
X36776Y-33146
X36780Y-33988
X36780Y-34878
X36783Y-35732
X36890Y-22264
X37055Y-23622
X37059Y-25339
X37063Y-24480
X37063Y-26217
X37067Y-27083
X37067Y-28803
X37071Y-27957
X37071Y-29673
X37075Y-22764
X37075Y-30547
X37079Y-31417
X37079Y-32264
X37079Y-33142
X37083Y-33996
X37083Y-34886
X37087Y-35736
X37256Y-16543
X37280Y-21043
X37622Y-22413
X37638Y-22763
X37646Y-29665
X37646Y-31402
X37646Y-32264
X37646Y-33126
X37646Y-33992
X37646Y-34886
X37646Y-35752
X37650Y-23606
X37650Y-24476
X37650Y-27949
X37650Y-28811
X37650Y-30524
X37654Y-25350
X37654Y-26209
X37654Y-27075
X37740Y-21185
X37945Y-33996
X37949Y-27945
X37949Y-31409
X37949Y-34886
X37953Y-28815
X37953Y-29681
X37953Y-30535
X37953Y-32264
X37953Y-33126
X37953Y-35740
X37953Y-22772
X37957Y-24476
X37957Y-25354
X37957Y-26213
X37961Y-27079
X37965Y-23602
X38106Y-22390
X38129Y-21218
X38500Y-35736
X38508Y-34858
X38512Y-33992
X38516Y-32276
X38516Y-33142
X38520Y-31402
X38524Y-30531
X38531Y-28795
X38531Y-29677
X38533Y-21998
X38535Y-27957
X38539Y-27083
X38545Y-22768
X38547Y-26228
X38551Y-24484
X38551Y-25354
X38555Y-23618
X38803Y-35740
X38807Y-34870
X38811Y-34012
X38815Y-32276
X38819Y-33150
X38827Y-31394
X38831Y-30528
X38835Y-29685
X38839Y-27957
X38839Y-28803
X38846Y-27087
X38850Y-25362
X38850Y-26224
X38858Y-23630
X38858Y-24484
X38860Y-22772
X38862Y-22283
X39358Y-34874
X39362Y-35744
X39366Y-34016
X39374Y-33142
X39382Y-32264
X39394Y-31417
X39401Y-22087
X39406Y-30531
X39409Y-29681
X39421Y-28815
X39429Y-27953
X39437Y-27094
X39441Y-26205
X39449Y-25343
X39453Y-22776
X39461Y-24476
X39472Y-23606
X39657Y-35772
X39665Y-34882
X39669Y-34008
X39681Y-33142
X39686Y-22216
X39693Y-32280
X39697Y-31413
X39701Y-30559
X39713Y-29677
X39724Y-28819
X39732Y-27953
X39740Y-27098
X39752Y-26213
X39760Y-25343
X39768Y-24488
X39776Y-23606
X39779Y-22845
X40152Y-20523
X40217Y-35768
X40220Y-11732
X40228Y-34878
X40240Y-34008
X40240Y-22053
X40252Y-33150
X40264Y-32280
X40272Y-31413
X40287Y-30551
X40295Y-29677
X40307Y-28835
X40323Y-27953
X40327Y-27094
X40339Y-26224
X40350Y-25366
X40357Y-22779
X40366Y-24512
X40370Y-23618
X40468Y-13926
X40516Y-35780
X40535Y-34894
X40539Y-34020
X40559Y-33154
X40571Y-32276
X40583Y-31421
X40594Y-30563
X40602Y-29689
X40610Y-28835
X40622Y-27969
X40638Y-27087
X40646Y-26236
X40657Y-22097
X40661Y-25370
X40672Y-22783
X40673Y-23642
X40673Y-24504
X40846Y-11831
X41028Y-13276
X41075Y-35752
X41087Y-34894
X41102Y-34024
X41118Y-33161
X41130Y-32283
X41138Y-21898
X41146Y-31437
X41161Y-30559
X41173Y-29701
X41189Y-28827
X41201Y-27984
X41220Y-27094
X41232Y-26248
X41248Y-25378
X41260Y-24528
X41264Y-22795
X41276Y-23650
X41378Y-35772
X41398Y-34902
X41406Y-34039
X41421Y-33169
X41437Y-32295
X41443Y-21905
X41453Y-31441
X41469Y-30567
X41476Y-29709
X41492Y-28839
X41508Y-27976
X41528Y-27118
X41539Y-26260
X41551Y-25386
X41565Y-22896
X41571Y-24524
X41583Y-23661
X41862Y-21615
X41929Y-35768
X41949Y-34913
X41965Y-34039
X41988Y-33189
X42000Y-32319
X42016Y-31445
X42039Y-30575
X42051Y-29713
X42071Y-28846
X42087Y-27980
X42106Y-27130
X42126Y-26248
X42135Y-21730
X42142Y-25390
X42157Y-24524
X42170Y-22810
X42173Y-23665
X42228Y-35787
X42248Y-34921
X42268Y-34047
X42295Y-33201
X42303Y-32319
X42315Y-31457
X42346Y-30583
X42358Y-29720
X42374Y-28858
X42394Y-27980
X42413Y-27142
X42429Y-26260
X42453Y-25402
X42465Y-24524
X42480Y-23673
X42485Y-22823
X42515Y-14072
X42528Y-13323
X42531Y-13776
X42591Y-10957
X42617Y-12246
X42634Y-14359
X42644Y-14655
X42691Y-16693
X42693Y-18657
X42724Y-16028
X42735Y-15347
X42740Y-13539
X42791Y-35783
X42791Y-21894
X42807Y-34933
X42831Y-34047
X42846Y-33201
X42852Y-17444
X42870Y-32343
X42898Y-31465
X42902Y-15102
X42909Y-30618
X42910Y-17153
X42912Y-20535
X42913Y-16256
X42929Y-13867
X42933Y-29724
X42949Y-28878
X42953Y-12346
X42976Y-28016
X42992Y-18579
X42992Y-27150
X43012Y-26295
X43038Y-20816
X43039Y-25398
X43055Y-24551
X43076Y-22834
X43083Y-23677
X43091Y-35811
X43114Y-34937
X43138Y-34063
X43154Y-33213
X43181Y-32339
X43197Y-31492
X43208Y-20558
X43217Y-30614
X43232Y-29748
X43239Y-12433
X43256Y-28882
X43283Y-18484
X43287Y-28016
X43293Y-21432
X43299Y-27157
X43317Y-10860
X43331Y-26303
X43346Y-25421
X43366Y-24551
X43390Y-23669
X43391Y-22843
X43411Y-22372
X43479Y-20678
X43516Y-12538
X43571Y-18370
X43612Y-10828
X43646Y-35819
X43669Y-34945
X43693Y-34063
X43717Y-33213
X43733Y-20831
X43748Y-32362
X43768Y-31492
X43787Y-30622
X43811Y-12638
X43815Y-29752
X43835Y-28890
X43859Y-18260
X43862Y-28028
X43886Y-27169
X43909Y-26295
X43933Y-25433
X43941Y-10788
X43949Y-12900
X43949Y-35823
X43953Y-24583
X43972Y-34953
X43976Y-23713
X43992Y-34083
X43996Y-22850
X44020Y-33220
X44025Y-20780
X44047Y-32378
X44067Y-31496
X44094Y-30634
X44114Y-29764
X44138Y-28902
X44169Y-28051
X44193Y-27177
X44220Y-26295
X44243Y-19468
X44248Y-25437
X44264Y-24575
X44275Y-10590
X44299Y-23697
X44314Y-22883
X44369Y-20861
X44374Y-21976
X44402Y-12890
X44425Y-20570
X44508Y-35854
X44519Y-11024
X44531Y-34976
X44535Y-19362
X44552Y-10696
X44563Y-34098
X44587Y-33252
X44614Y-32374
X44642Y-31512
X44665Y-30638
X44705Y-29791
X44720Y-28921
X44748Y-28051
X44776Y-27189
X44811Y-35878
X44815Y-26307
X44823Y-19292
X44827Y-10894
X44827Y-25457
X44835Y-34988
X44858Y-24618
X44866Y-34134
X44886Y-23724
X44886Y-33260
X44906Y-22882
X44921Y-32390
X44949Y-31524
X44980Y-30654
X45008Y-29803
X45028Y-28925
X45043Y-15819
X45059Y-28071
X45063Y-16268
X45079Y-15067
X45083Y-27193
X45118Y-26331
X45134Y-25461
X45150Y-11811
X45165Y-24618
X45169Y-10890
X45193Y-23744
X45232Y-22894
X45239Y-19376
X45246Y-16034
X45362Y-35870
X45376Y-15364
X45394Y-35004
X45410Y-22267
X45421Y-34150
X45453Y-33276
X45480Y-32402
X45516Y-31539
X45526Y-19066
X45539Y-30693
X45575Y-29819
X45606Y-28945
X45642Y-28075
X45645Y-12014
X45661Y-35886
X45669Y-27224
X45693Y-35020
X45697Y-26354
X45720Y-25492
X45724Y-34157
X45744Y-20668
X45752Y-33299
X45756Y-24622
X45783Y-32417
X45787Y-23756
X45803Y-22913
X45819Y-31547
X45836Y-19082
X45843Y-30697
X45882Y-29839
X45909Y-28972
X45937Y-28102
X45940Y-20436
X45942Y-12012
X45972Y-27236
X45996Y-26374
X46035Y-25516
X46060Y-21125
X46067Y-24634
X46102Y-22574
X46106Y-23760
X46130Y-22925
X46140Y-12232
X46217Y-35909
X46256Y-35047
X46283Y-34165
X46323Y-33307
X46354Y-32437
X46394Y-31575
X46421Y-30713
X46457Y-29874
X46476Y-21124
X46488Y-28980
X46520Y-35917
X46531Y-28138
X46555Y-35059
X46563Y-27252
X46587Y-34181
X46591Y-26386
X46622Y-21382
X46626Y-33319
X46634Y-25524
X46654Y-32453
X46661Y-24669
X46693Y-31587
X46697Y-23807
X46717Y-22941
X46720Y-30732
X46756Y-29854
X46791Y-29000
X46831Y-28142
X46866Y-27272
X46902Y-26398
X46933Y-25539
X46961Y-24673
X47000Y-23819
X47047Y-22945
X47063Y-22583
X47079Y-35929
X47110Y-19847
X47114Y-35075
X47150Y-34197
X47165Y-12512
X47189Y-33343
X47224Y-32476
X47228Y-12870
X47260Y-31622
X47299Y-30744
X47305Y-21583
X47335Y-29882
X47374Y-29016
X47378Y-35949
X47406Y-28157
X47413Y-35083
X47445Y-27295
X47449Y-34224
X47484Y-26417
X47488Y-33366
X47516Y-25563
X47516Y-18161
X47531Y-32508
X47555Y-24693
X47567Y-31634
X47598Y-23831
X47602Y-30748
X47618Y-22976
X47646Y-29906
X47681Y-29031
X47710Y-19555
X47717Y-28177
X47756Y-27311
X47779Y-18024
X47787Y-26445
X47819Y-25587
X47862Y-24709
X47876Y-21565
X47906Y-23835
X47921Y-22681
X47933Y-35980
X47934Y-22996
X47976Y-35098
X48016Y-34240
X48040Y-17875
X48055Y-33382
X48094Y-32520
X48138Y-31650
X48173Y-30783
X48189Y-21558
X48224Y-29941
X48240Y-35984
X48256Y-29059
X48280Y-35118
X48295Y-28193
X48323Y-34256
X48346Y-27331
X48354Y-33417
X48374Y-26476
X48402Y-32543
X48421Y-25602
X48449Y-31673
X48461Y-24740
X48484Y-30807
X48485Y-21559
X48496Y-23866
X48524Y-23016
X48531Y-29949
X48555Y-29075
X48602Y-28213
X48630Y-18429
X48630Y-19398
X48634Y-18901
X48641Y-19872
X48654Y-27354
X48689Y-26484
X48732Y-25606
X48744Y-22674
X48768Y-24752
X48791Y-36031
X48815Y-23890
X48835Y-35138
X48850Y-19646
X48854Y-19157
X48854Y-22972
X48858Y-18693
X48878Y-34295
X48917Y-18277
X48923Y-17740
X48925Y-33433
X48933Y-21567
X48969Y-32559
X49016Y-31697
X49063Y-30827
X49094Y-36051
X49098Y-29972
X49138Y-35161
X49146Y-29106
X49185Y-28244
X49185Y-34295
X49224Y-33457
X49236Y-27378
X49272Y-32575
X49280Y-26516
X49319Y-31720
X49323Y-25626
X49362Y-30843
X49366Y-24787
X49406Y-29996
X49409Y-23906
X49433Y-23071
X49449Y-29114
X49484Y-19834
X49492Y-28256
X49535Y-27394
X49566Y-20273
X49575Y-19001
X49577Y-19418
X49579Y-26531
X49602Y-21031
X49618Y-18169
X49622Y-25665
X49634Y-22792
X49646Y-36067
X49665Y-24799
X49666Y-18585
X49693Y-35197
X49713Y-23917
X49744Y-34319
X49764Y-23083
X49791Y-33465
X49807Y-17941
X49839Y-32614
X49886Y-31736
X49933Y-30882
X49949Y-36083
X49980Y-30012
X49992Y-35228
X50031Y-29154
X50043Y-34339
X50075Y-28295
X50091Y-33488
X50126Y-27402
X50138Y-32622
X50169Y-26531
X50189Y-31756
X50224Y-25693
X50236Y-30886
X50240Y-17831
X50264Y-24835
X50283Y-30031
X50315Y-23953
X50331Y-29157
X50343Y-23114
X50374Y-28307
X50425Y-27417
X50472Y-26567
X50508Y-36106
X50524Y-25709
X50535Y-22807
X50559Y-35244
X50567Y-24835
X50610Y-34366
X50618Y-23992
X50661Y-33512
X50669Y-23130
X50709Y-32650
X50756Y-31799
X50807Y-30921
X50811Y-36130
X50862Y-30055
X50866Y-35291
X50913Y-29193
X50913Y-34390
X50957Y-28335
X50961Y-33524
X51008Y-32673
X51012Y-27476
X51063Y-26602
X51067Y-31811
X51110Y-25724
X51118Y-30941
X51161Y-24866
X51161Y-30075
X51209Y-24008
X51213Y-29220
X51248Y-23157
X51268Y-28362
X51311Y-27484
X51362Y-36165
X51366Y-26626
X51406Y-25752
X51413Y-35291
X51465Y-24898
X51469Y-34429
X51516Y-24035
X51520Y-33567
X51571Y-23185
X51575Y-22823
X51575Y-32713
X51626Y-31850
X51657Y-36193
X51681Y-30965
X51697Y-20213
X51713Y-35303
X51736Y-30122
X51768Y-34441
X51791Y-29236
X51819Y-33583
X51839Y-19669
X51843Y-28382
X51870Y-19044
X51874Y-32728
X51894Y-27520
X51929Y-31870
X51949Y-26638
X51980Y-30984
X51993Y-20734
X52000Y-25783
X52039Y-30142
X52051Y-24929
X52091Y-29252
X52106Y-24063
X52150Y-28402
X52154Y-23224
X52169Y-21243
X52205Y-27531
X52220Y-36217
X52240Y-22205
X52248Y-26669
X52249Y-20016
X52263Y-18703
X52264Y-19359
X52272Y-35358
X52280Y-20806
X52311Y-25819
X52331Y-34488
X52354Y-24949
X52390Y-33614
X52421Y-24091
X52449Y-32760
X52476Y-23244
X52504Y-31886
X52520Y-36228
X52563Y-31039
X52571Y-35390
X52585Y-21155
X52618Y-30161
X52630Y-34516
X52677Y-29307
X52685Y-33657
X52709Y-21574
X52728Y-28461
X52748Y-32783
X52787Y-27594
X52803Y-31909
X52846Y-26720
X52862Y-31055
X52902Y-25858
X52913Y-30193
X52961Y-24992
X52976Y-29335
X53016Y-24114
X53031Y-28472
X53055Y-23272
X53067Y-36264
X53087Y-27614
X53126Y-35417
X53146Y-26744
X53189Y-34539
X53205Y-25878
X53248Y-33677
X53260Y-25016
X53307Y-32819
X53311Y-24142
X53366Y-31969
X53366Y-36280
X53382Y-23295
X53425Y-31098
X53429Y-35437
X53488Y-30220
X53488Y-34563
X53551Y-29358
X53551Y-33705
X53606Y-28512
X53610Y-32843
X53665Y-27654
X53669Y-31992
X53724Y-31114
X53728Y-26772
X53780Y-18913
X53787Y-25917
X53791Y-30252
X53854Y-25043
X53858Y-29394
X53913Y-24181
X53913Y-28531
X53925Y-36327
X53943Y-19354
X53965Y-23331
X53980Y-27669
X53988Y-35472
X54043Y-26799
X54051Y-34598
X54094Y-25929
X54114Y-33740
X54161Y-25071
X54185Y-32874
X54220Y-24205
X54228Y-36366
X54234Y-19410
X54240Y-32020
X54264Y-19115
X54283Y-23362
X54295Y-35492
X54303Y-31165
X54354Y-34622
X54370Y-30280
X54413Y-33764
X54437Y-29429
X54484Y-32898
X54496Y-28559
X54543Y-32043
X54555Y-27709
X54587Y-19523
X54614Y-31185
X54622Y-26835
X54673Y-30315
X54685Y-25972
X54736Y-29461
X54748Y-25110
X54783Y-36402
X54798Y-21871
X54803Y-28591
X54811Y-24244
X54854Y-35528
X54858Y-27732
X54870Y-23402
X54917Y-34669
X54921Y-26862
X54984Y-33815
X54996Y-26008
X55051Y-32945
X55055Y-25146
X55087Y-36429
X55118Y-24264
X55118Y-32091
X55150Y-35559
X55185Y-31220
X55201Y-23421
X55220Y-34693
X55252Y-30358
X55283Y-33843
X55319Y-29488
X55354Y-32972
X55382Y-28630
X55421Y-32118
X55449Y-27772
X55488Y-31232
X55515Y-21307
X55516Y-26898
X55547Y-30394
X55583Y-26035
X55618Y-29524
X55642Y-36472
X55650Y-25177
X55685Y-28661
X55717Y-24303
X55717Y-35587
X55756Y-27803
X55768Y-23465
X55769Y-21154
X55780Y-34740
X55819Y-26937
X55854Y-33886
X55886Y-26075
X55917Y-33020
X55941Y-36500
X55953Y-25213
X55977Y-21400
X55992Y-32134
X56012Y-35622
X56016Y-24339
X56059Y-31287
X56079Y-34780
X56106Y-23488
X56130Y-30429
X56150Y-33921
X56186Y-21190
X56205Y-29559
X56220Y-33051
X56272Y-28713
X56291Y-32165
X56335Y-27850
X56358Y-31319
X56394Y-21405
X56406Y-26965
X56429Y-30469
X56476Y-26102
X56496Y-36531
X56504Y-29583
X56547Y-25264
X56567Y-35681
X56571Y-28740
X56614Y-21194
X56618Y-24374
X56638Y-34819
X56642Y-27870
X56689Y-23543
X56713Y-27008
X56713Y-33957
X56783Y-26138
X56787Y-33087
X56791Y-36579
X56846Y-25276
X56858Y-32217
X56866Y-35709
X56921Y-24398
X56929Y-31358
X56941Y-34839
X57004Y-30496
X57012Y-23559
X57016Y-33972
X57069Y-21313
X57079Y-29642
X57091Y-33106
X57146Y-28780
X57161Y-32248
X57220Y-27909
X57236Y-31374
X57295Y-27047
X57307Y-30531
X57346Y-36618
X57349Y-21217
X57366Y-26177
X57382Y-29665
X57425Y-35756
X57441Y-25319
X57453Y-28803
X57500Y-34894
X57516Y-24449
X57535Y-27929
X57575Y-23610
X57575Y-34024
X57606Y-27075
X57642Y-36650
X57654Y-33154
X57669Y-26217
X57720Y-35791
X57740Y-32295
X57744Y-25354
X57799Y-34909
X57811Y-31433
X57819Y-24472
X57878Y-34047
X57890Y-30559
X57906Y-23638
X57953Y-33189
X57961Y-29705
X58035Y-28854
X58035Y-32327
X58110Y-31465
X58114Y-28000
X58189Y-30598
X58193Y-27118
X58205Y-36681
X58260Y-29748
X58272Y-26268
X58283Y-35823
X58339Y-28894
X58346Y-25386
X58362Y-34953
X58421Y-28031
X58425Y-24535
X58445Y-34102
X58496Y-23689
X58496Y-27157
X58500Y-36720
X58524Y-33228
X58571Y-26303
X58583Y-35862
X58602Y-32394
X58646Y-25413
X58661Y-34996
X58681Y-31512
X58728Y-24571
X58744Y-34130
X58768Y-30646
X58815Y-23720
X58819Y-33264
X58843Y-29791
X58902Y-32425
X58921Y-28925
X58976Y-31551
X59000Y-28079
X59059Y-36780
X59063Y-30693
X59087Y-27224
X59142Y-29819
X59146Y-35890
X59161Y-26354
X59224Y-28961
X59224Y-35039
X59240Y-25488
X59303Y-28098
X59307Y-34185
X59319Y-24614
X59362Y-36803
X59382Y-23764
X59382Y-27256
X59394Y-33319
X59425Y-21638
X59445Y-35921
X59465Y-26374
X59472Y-32469
X59484Y-22294
X59520Y-35071
X59547Y-25504
X59559Y-31602
X59610Y-34232
X59626Y-24654
X59642Y-30720
X59693Y-33346
X59705Y-23799
X59724Y-29866
X59776Y-32516
X59807Y-29020
X59862Y-31622
X59894Y-28154
X59906Y-36862
X59937Y-30760
X59972Y-27283
X59996Y-35980
X60028Y-29902
X60055Y-26437
X60071Y-21820
X60083Y-35110
X60110Y-29047
X60138Y-25559
X60169Y-34283
X60193Y-28185
X60209Y-36886
X60220Y-24709
X60252Y-33406
X60276Y-27323
X60287Y-23858
X60295Y-36024
X60343Y-32531
X60358Y-26472
X60390Y-35157
X60425Y-31677
X60437Y-25587
X60469Y-34303
X60508Y-30823
X60524Y-24736
X60559Y-33441
X60594Y-29961
X60602Y-23866
X60646Y-32563
X60681Y-29102
X60732Y-31709
X60772Y-28248
X60776Y-36941
X60795Y-22174
X60807Y-30858
X60854Y-27366
X60854Y-36094
X60902Y-29996
X60937Y-26524
X60945Y-35213
X60992Y-29138
X61024Y-25657
X61031Y-34374
X61075Y-28272
X61075Y-36976
X61106Y-24799
X61122Y-33492
X61157Y-36118
X61165Y-27417
X61181Y-23945
X61213Y-32634
X61240Y-35252
X61248Y-26551
X61303Y-31780
X61327Y-25689
X61343Y-34386
X61394Y-30921
X61397Y-22093
X61417Y-24815
X61421Y-33528
X61480Y-30055
X61516Y-23976
X61524Y-32661
X61571Y-29185
X61598Y-31815
X61618Y-37028
X61661Y-28331
X61697Y-30949
X61709Y-36169
X61752Y-27469
X61787Y-30087
X61799Y-35315
X61835Y-26614
X61866Y-29224
X61894Y-34445
X61909Y-37087
X61925Y-25748
X61965Y-28378
X61988Y-33587
X62004Y-36217
X62016Y-24886
X62055Y-27512
X62079Y-32709
X62094Y-24035
X62098Y-35335
X62142Y-26650
X62177Y-31866
X62193Y-34472
X62236Y-25783
X62268Y-31012
X62291Y-33602
X62335Y-24902
X62362Y-30126
X62378Y-32760
X62437Y-24075
X62449Y-29299
X62469Y-37130
X62476Y-31906
X62539Y-28421
X62563Y-36268
X62571Y-31043
X62634Y-27575
X62661Y-35390
X62665Y-30173
X62724Y-26705
X62756Y-29323
X62760Y-34539
X62772Y-37161
X62819Y-25835
X62846Y-28461
X62854Y-33673
X62862Y-36303
X62913Y-24965
X62933Y-27602
X62957Y-32811
X62972Y-35417
X63004Y-24134
X63028Y-26732
X63051Y-31957
X63059Y-34575
X63126Y-25878
X63142Y-31098
X63157Y-33717
X63220Y-25000
X63240Y-30228
X63256Y-32858
X63319Y-24150
X63319Y-37213
X63343Y-29382
X63354Y-32008
X63421Y-36362
X63437Y-28531
X63441Y-31134
X63520Y-35500
X63528Y-27657
X63543Y-30268
X63618Y-34626
X63622Y-37260
X63626Y-26803
X63638Y-29421
X63717Y-33783
X63720Y-36386
X63724Y-25941
X63740Y-28555
X63819Y-25075
X63819Y-32917
X63827Y-35539
X63835Y-27693
X63874Y-23542
X63886Y-24228
X63921Y-32063
X63921Y-34677
X63933Y-26827
X64020Y-31205
X64024Y-25980
X64024Y-33815
X64118Y-25118
X64118Y-32980
X64122Y-30335
X64169Y-37335
X64217Y-29484
X64220Y-32094
X64236Y-24264
X64272Y-36461
X64319Y-28614
X64323Y-31220
X64345Y-23550
X64374Y-35602
X64417Y-30374
X64421Y-27740
X64465Y-37362
X64480Y-34736
X64520Y-26909
X64520Y-29528
X64571Y-36504
X64583Y-33878
X64614Y-28654
X64618Y-26043
X64677Y-35634
X64685Y-33020
X64704Y-23585
X64713Y-27795
X64717Y-25181
X64780Y-34768
X64787Y-32154
X64807Y-24331
X64819Y-26933
X64878Y-33917
X64890Y-31303
X64917Y-26071
X64988Y-33039
X64996Y-30433
X65020Y-25213
X65087Y-32181
X65091Y-23717
X65094Y-29587
X65134Y-24370
X65185Y-31331
X65197Y-28720
X65291Y-30469
X65303Y-27854
X65398Y-29618
X65402Y-27004
X65500Y-28760
X65504Y-26146
X65522Y-23733
X65602Y-27886
X65606Y-25295
X65697Y-24437
X65701Y-27028
X65764Y-23937
X65803Y-26173
X65906Y-25319
X65996Y-24453
T2
X18567Y-39327
X20760Y-18787
X22760Y-18780
X23076Y-21848
X23535Y-17362
X24307Y-22563
X24445Y-38768
X27012Y-21909
X27874Y-19626
X30051Y-38567
X31567Y-14083
X31621Y-17181
X31650Y-10610
X31717Y-15205
X31783Y-18169
X32563Y-10469
X32630Y-9677
X33484Y-8787
X33543Y-10240
X34205Y-12720
X34220Y-15795
X34220Y-16305
X34226Y-14155
X34228Y-13276
X34236Y-14965
X34236Y-15378
X34240Y-14543
X34244Y-13713
X34244Y-17846
X34248Y-18311
X34248Y-18890
X34598Y-10409
X35803Y-38539
X35988Y-10276
X36142Y-20717
X36327Y-7831
X36575Y-9063
X36748Y-7843
X36991Y-8991
X37046Y-10236
X37071Y-20748
X37138Y-12622
X37165Y-7839
X37384Y-8976
X37591Y-7839
X37790Y-8978
X37988Y-7843
X38039Y-20740
X38205Y-9067
X38390Y-7858
X38892Y-9972
X39094Y-18811
X39463Y-9980
X39701Y-11724
X39801Y-10182
X40175Y-10365
X40561Y-9925
X40862Y-15618
X40890Y-17622
X41303Y-9882
X41571Y-38598
X41858Y-20232
X42550Y-15011
X42561Y-17215
X42587Y-10256
X43980Y-10390
X45114Y-17350
X45472Y-10701
X46819Y-21031
X47157Y-19004
X47291Y-38685
X47394Y-21031
X47413Y-20295
X47799Y-13236
X48685Y-20222
X48831Y-20614
X50236Y-21165
X50755Y-21417
X50771Y-21043
X51744Y-21448
X53083Y-39118
X53251Y-21978
X53992Y-22591
X55073Y-19695
X55560Y-19875
X55866Y-20091
X58819Y-39441
T3
X36071Y-9646
X38669Y-9646
T4
X48236Y-15492
X59571Y-62689
X26504Y-15492
X15280Y-62681
T0
M30
