M48
INCH,TZ
T1C0.0157
T2C0.0394
T3C0.0400
T4C0.1575
%
G90
G05
T1
X34510Y-29520
X37054Y-29444
X37700Y-28270
X38260Y-33160
X38360Y-34510
X38362Y-37978
X38372Y-46978
X38445Y-32427
X38560Y-29940
X38640Y-32950
X38663Y-47263
X38672Y-38284
X38690Y-35150
X38740Y-31350
X38742Y-34605
X38790Y-27170
X38800Y-35700
X39270Y-29350
X44380Y-29400
X45490Y-29090
X45560Y-38490
X47327Y-29214
X47390Y-37110
X47615Y-33009
X47793Y-32441
X47840Y-29290
X56304Y-33846
X56331Y-34427
X56331Y-35027
X56400Y-38960
X56415Y-36036
X56667Y-35685
T2
X43000Y-48500
X43000Y-49500
X44000Y-48500
X44000Y-49500
X45000Y-48500
X45000Y-49500
X46000Y-48500
X46000Y-49500
X47000Y-48500
X47000Y-49500
X48000Y-48500
X48000Y-49500
X49000Y-48500
X49000Y-49500
X50000Y-48500
X50000Y-49500
X51000Y-48500
X51000Y-49500
X52000Y-48500
X52000Y-49500
X43000Y-27500
X43000Y-28500
X44000Y-27500
X44000Y-28500
X45000Y-27500
X45000Y-28500
X46000Y-27500
X46000Y-28500
X47000Y-27500
X47000Y-28500
X48000Y-27500
X48000Y-28500
X49000Y-27500
X49000Y-28500
X50000Y-27500
X50000Y-28500
X51000Y-27500
X51000Y-28500
X52000Y-27500
X52000Y-28500
T3
X39500Y-39500
X39500Y-46500
X40500Y-39500
X40500Y-46500
X41500Y-39500
X41500Y-46500
X42500Y-39500
X42500Y-46500
X43500Y-39500
X43500Y-46500
X44500Y-39500
X44500Y-46500
X45500Y-39500
X45500Y-46500
X46500Y-39500
X46500Y-46500
X48500Y-30500
X48500Y-37500
X49500Y-30500
X49500Y-37500
X50500Y-30500
X50500Y-37500
X51500Y-30500
X51500Y-37500
X52500Y-30500
X52500Y-37500
X53500Y-30500
X53500Y-37500
X54500Y-30500
X54500Y-37500
X55500Y-30500
X55500Y-37500
X30500Y-39500
X30500Y-46500
X31500Y-39500
X31500Y-46500
X32500Y-39500
X32500Y-46500
X33500Y-39500
X33500Y-46500
X34500Y-39500
X34500Y-46500
X35500Y-39500
X35500Y-46500
X36500Y-39500
X36500Y-46500
X37500Y-39500
X37500Y-46500
X30500Y-30500
X30500Y-37500
X31500Y-30500
X31500Y-37500
X32500Y-30500
X32500Y-37500
X33500Y-30500
X33500Y-37500
X34500Y-30500
X34500Y-37500
X35500Y-30500
X35500Y-37500
X36500Y-30500
X36500Y-37500
X37500Y-30500
X37500Y-37500
X39500Y-30500
X39500Y-37500
X40500Y-30500
X40500Y-37500
X41500Y-30500
X41500Y-37500
X42500Y-30500
X42500Y-37500
X43500Y-30500
X43500Y-37500
X44500Y-30500
X44500Y-37500
X45500Y-30500
X45500Y-37500
X46500Y-30500
X46500Y-37500
X57500Y-39500
X57500Y-46500
X58500Y-39500
X58500Y-46500
X59500Y-39500
X59500Y-46500
X60500Y-39500
X60500Y-46500
X61500Y-39500
X61500Y-46500
X62500Y-39500
X62500Y-46500
X63500Y-39500
X63500Y-46500
X64500Y-39500
X64500Y-46500
X57500Y-30500
X57500Y-37500
X58500Y-30500
X58500Y-37500
X59500Y-30500
X59500Y-37500
X60500Y-30500
X60500Y-37500
X61500Y-30500
X61500Y-37500
X62500Y-30500
X62500Y-37500
X63500Y-30500
X63500Y-37500
X64500Y-30500
X64500Y-37500
X48500Y-39500
X48500Y-46500
X49500Y-39500
X49500Y-46500
X50500Y-39500
X50500Y-46500
X51500Y-39500
X51500Y-46500
X52500Y-39500
X52500Y-46500
X53500Y-39500
X53500Y-46500
X54500Y-39500
X54500Y-46500
X55500Y-39500
X55500Y-46500
T4
X64450Y-48950
X30550Y-48950
X30550Y-28050
X64450Y-28050
T0
M30
